<svg version="1.1" id="Layer_1" xmlns="http://www.w3.org/2000/svg" xmlns:xlink="http://www.w3.org/1999/xlink" x="0px" y="0px"
	 viewBox="0 0 1440 780" style="enable-background:new 0 0 1440 780;" xml:space="preserve">
<style type="text/css">
	.st0{fill-rule:evenodd;clip-rule:evenodd;fill:#F6FBFF;}
	.st1{filter:url(#Adobe_OpacityMaskFilter);}
	.st2{fill-rule:evenodd;clip-rule:evenodd;fill:#FFFFFF;}
	.st3{mask:url(#b_1_);}
	.st4{fill:none;}
</style>
<path class="st0" d="M-5.8,142.3C254.5,0,483.7-35.6,681.7,35.6c297,106.7,536.5,92.3,752.5,0c144-61.5,144,146.9,0,625.3
	c-235.5,101.6-436.7,122-603.5,61.2c-250.2-91.2-630.5-91.2-830.2,57.2C-132.7,878.1-134.8,665.8-5.8,142.3z"/>
<g>
	<defs>
		<filter id="Adobe_OpacityMaskFilter" filterUnits="userSpaceOnUse" x="760" y="120" width="560" height="560">
			<feColorMatrix  type="matrix" values="1 0 0 0 0  0 1 0 0 0  0 0 1 0 0  0 0 0 1 0"/>
		</filter>
	</defs>
	<mask maskUnits="userSpaceOnUse" x="760" y="120" width="560" height="560" id="b_1_">
		<g class="st1">
			<path id="a_1_" class="st2" d="M0,641h1440v162H0V641z"/>
		</g>
	</mask>
	<g class="st3">
		<path class="st4" d="M760,120h560v560H760V120z"/>
	</g>
</g>
</svg>